<svg width="12" height="24" viewBox="0 0 12 24" fill="none" xmlns="http://www.w3.org/2000/svg">
<path d="M2.59374 4.63822C2.59374 5.24175 2.59374 7.93556 2.59374 7.93556H0V11.9676H2.59374V23.9493H7.92182V11.9679H11.4972C11.4972 11.9679 11.8321 10.0346 11.9944 7.9207C11.529 7.9207 7.94197 7.9207 7.94197 7.9207C7.94197 7.9207 7.94197 5.575 7.94197 5.16385C7.94197 4.75181 8.52289 4.19755 9.09706 4.19755C9.67015 4.19755 10.8797 4.19755 12 4.19755C12 3.64859 12 1.7518 12 0C10.5044 0 8.80298 0 8.05299 0C2.46203 -0.000278408 2.59374 4.03574 2.59374 4.63822Z" fill="white" fill-opacity="0.3"/>
</svg>
