<svg width="174" height="191" viewBox="0 0 174 191" fill="none" xmlns="http://www.w3.org/2000/svg">
<path fill-rule="evenodd" clip-rule="evenodd" d="M60.2986 0H113.593L157.948 12.5219L174 26.8562V51.6516L157.948 65.4173L117.149 80H60.2986L17.7525 70.8504L0 58.4985V30.943L17.7525 12.5219L60.2986 0Z" fill="url(#paint0_linear)"/>
<path fill-rule="evenodd" clip-rule="evenodd" d="M81.129 134H91.8492L100.771 136.504L104 139.371V144.33L100.771 147.083L92.5645 150H81.129L72.5709 148.17L69 145.7V140.189L72.5709 136.504L81.129 134Z" fill="url(#paint1_linear)"/>
<path fill-rule="evenodd" clip-rule="evenodd" d="M73 148.385L74.789 181.354L75.9512 184.719L81.0208 187.673L87.0168 190.328L94.683 191L96.5473 190.328L101 147L73 148.385Z" fill="url(#paint2_linear)"/>
<path fill-rule="evenodd" clip-rule="evenodd" d="M59.22 79.5687L81.7777 149.666L73.4613 148.344L18 71L59.22 79.5687Z" fill="url(#paint3_linear)"/>
<path fill-rule="evenodd" clip-rule="evenodd" d="M1 59L70.7273 147H73L19.1052 70.913L1 59Z" fill="url(#paint4_linear)"/>
<path fill-rule="evenodd" clip-rule="evenodd" d="M58 80H120L94.7407 150H81.0228L58 80Z" fill="url(#paint5_linear)"/>
<path fill-rule="evenodd" clip-rule="evenodd" d="M116.197 80.3745L95 150L101.569 148.228L160.875 62.6152L116.197 80.3745Z" fill="url(#paint6_linear)"/>
<path fill-rule="evenodd" clip-rule="evenodd" d="M173.881 51.2778L105.491 143.999L100 147L158.582 64.7408L173.881 51.2778Z" fill="url(#paint7_linear)"/>
<path fill-rule="evenodd" clip-rule="evenodd" d="M1 31L26 73L18.9331 71.5779L1 59.3258V31Z" fill="url(#paint8_linear)"/>
<path fill-rule="evenodd" clip-rule="evenodd" d="M18.4174 12L48 78L27.5008 73.6586L1 31.3183L18.4174 12Z" fill="url(#paint9_linear)"/>
<path fill-rule="evenodd" clip-rule="evenodd" d="M18 12.2159L58.7971 0L70 80H58.7971L46.6934 77.5809L18 12.2159Z" fill="url(#paint10_linear)"/>
<path fill-rule="evenodd" clip-rule="evenodd" d="M59 0H114L101.324 80H70.1425L59 0Z" fill="url(#paint11_linear)"/>
<path fill-rule="evenodd" clip-rule="evenodd" d="M114.756 0L102 80H118.353L127.438 76.2295L160 12.7736L114.756 0Z" fill="url(#paint12_linear)"/>
<path fill-rule="evenodd" clip-rule="evenodd" d="M158.316 13L174 25.9914L144.668 70.3669L126 77L158.316 13Z" fill="url(#paint13_linear)"/>
<defs>
<linearGradient id="paint0_linear" x1="119.912" y1="-24.4733" x2="12.1924" y2="102.743" gradientUnits="userSpaceOnUse">
<stop stop-color="#520596"/>
<stop offset="1" stop-color="#FC486B"/>
</linearGradient>
<linearGradient id="paint1_linear" x1="93.1202" y1="129.105" x2="71.597" y2="154.67" gradientUnits="userSpaceOnUse">
<stop stop-color="#520596"/>
<stop offset="1" stop-color="#FC486B"/>
</linearGradient>
<linearGradient id="paint2_linear" x1="109.701" y1="144.208" x2="78.148" y2="144.208" gradientUnits="userSpaceOnUse">
<stop stop-color="#520596"/>
<stop offset="1" stop-color="#FC486B"/>
</linearGradient>
<linearGradient id="paint3_linear" x1="61.9523" y1="46.9348" x2="-17.2514" y2="81.8019" gradientUnits="userSpaceOnUse">
<stop stop-color="#520596"/>
<stop offset="1" stop-color="#FC486B"/>
</linearGradient>
<linearGradient id="paint4_linear" x1="50.6187" y1="32.0794" x2="-38.5291" y2="71.6845" gradientUnits="userSpaceOnUse">
<stop stop-color="#520596"/>
<stop offset="1" stop-color="#FC486B"/>
</linearGradient>
<linearGradient id="paint5_linear" x1="100.727" y1="58.5859" x2="26.0762" y2="94.488" gradientUnits="userSpaceOnUse">
<stop stop-color="#520596"/>
<stop offset="1" stop-color="#FC486B"/>
</linearGradient>
<linearGradient id="paint6_linear" x1="140.398" y1="35.8829" x2="56.7507" y2="70.1223" gradientUnits="userSpaceOnUse">
<stop stop-color="#520596"/>
<stop offset="1" stop-color="#FC486B"/>
</linearGradient>
<linearGradient id="paint7_linear" x1="150.915" y1="21.995" x2="57.7474" y2="61.0405" gradientUnits="userSpaceOnUse">
<stop stop-color="#520596"/>
<stop offset="1" stop-color="#FC486B"/>
</linearGradient>
<linearGradient id="paint8_linear" x1="18.2287" y1="18.1515" x2="-15.3292" y2="28.9977" gradientUnits="userSpaceOnUse">
<stop stop-color="#520596"/>
<stop offset="1" stop-color="#FC486B"/>
</linearGradient>
<linearGradient id="paint9_linear" x1="33.39" y1="-8.19044" x2="-27.2263" y2="15.2482" gradientUnits="userSpaceOnUse">
<stop stop-color="#520596"/>
<stop offset="1" stop-color="#FC486B"/>
</linearGradient>
<linearGradient id="paint10_linear" x1="53.8358" y1="-24.4733" x2="-14.7169" y2="-0.278155" gradientUnits="userSpaceOnUse">
<stop stop-color="#520596"/>
<stop offset="1" stop-color="#FC486B"/>
</linearGradient>
<linearGradient id="paint11_linear" x1="96.9032" y1="-24.4733" x2="25.3367" y2="2.24281" gradientUnits="userSpaceOnUse">
<stop stop-color="#520596"/>
<stop offset="1" stop-color="#FC486B"/>
</linearGradient>
<linearGradient id="paint12_linear" x1="141.971" y1="-24.4733" x2="67.521" y2="4.83505" gradientUnits="userSpaceOnUse">
<stop stop-color="#520596"/>
<stop offset="1" stop-color="#FC486B"/>
</linearGradient>
<linearGradient id="paint13_linear" x1="159.079" y1="-6.57861" x2="98.0402" y2="18.2789" gradientUnits="userSpaceOnUse">
<stop stop-color="#520596"/>
<stop offset="1" stop-color="#FC486B"/>
</linearGradient>
</defs>
</svg>
