<svg width="138" height="218" viewBox="0 0 138 218" fill="none" xmlns="http://www.w3.org/2000/svg">
<path fill-rule="evenodd" clip-rule="evenodd" d="M64.2863 122L63.0336 60.1721C62.5381 40.7256 67.5202 25.8352 77.9799 15.5011C88.4397 5.16705 104.113 0 125 0C120.941 18.0827 114.573 32.1389 105.896 42.1688C97.2196 52.1987 84.4018 58.1998 67.443 60.1721V122H64.2863Z" fill="url(#paint0_linear)"/>
<path fill-rule="evenodd" clip-rule="evenodd" d="M67.9664 160V98.1721C67.9664 98.1721 68.7097 69.0023 53.0201 53.5011C37.3304 38 6 38 6 38C6 38 12.0884 65.124 25.1036 80.1688C38.1188 95.2137 63.557 98.1721 63.557 98.1721V160H67.9664Z" fill="url(#paint1_linear)"/>
<path fill-rule="evenodd" clip-rule="evenodd" d="M70.0645 204.833C84.9148 204.833 96.9534 201.852 96.9534 198.175C96.9534 197.259 97.3154 191.333 95.9623 190.538C91.8871 188.145 81.2131 191.517 70.0645 191.517C60.4023 191.517 49.5059 187.684 44.7657 189.579C42.2204 190.596 43.1756 196.891 43.1756 198.175C43.1756 201.852 55.2142 204.833 70.0645 204.833Z" fill="url(#paint2_linear)"/>
<path d="M45.6943 191.474V198.481" stroke="white"/>
<path d="M48.1387 192.684V199.691" stroke="white"/>
<path d="M51.8057 193.895V200.902" stroke="white"/>
<path d="M56.6943 195.105V202.113" stroke="white"/>
<path d="M62.8057 196.316V203.323" stroke="white"/>
<path d="M76.25 196.316V203.323" stroke="white"/>
<path d="M82.3613 195.105V202.113" stroke="white"/>
<path d="M88.4722 193.895V200.902" stroke="white"/>
<path d="M92.1387 192.684V199.691" stroke="white"/>
<path d="M94.5835 190.263V197.27" stroke="white"/>
<path d="M68.9165 196.316V203.323" stroke="white"/>
<path fill-rule="evenodd" clip-rule="evenodd" d="M69.8889 196.316C84.7392 196.316 96.7778 193.335 96.7778 189.658C96.7778 185.981 84.7392 183 69.8889 183C55.0386 183 43 185.981 43 189.658C43 193.335 55.0386 196.316 69.8889 196.316Z" fill="url(#paint3_linear)"/>
<path fill-rule="evenodd" clip-rule="evenodd" d="M62.0645 190.833C76.9148 190.833 88.9534 187.852 88.9534 184.175C88.9534 183.259 89.3154 177.333 87.9623 176.538C83.8871 174.145 73.2131 177.517 62.0645 177.517C52.4023 177.517 41.5059 173.684 36.7657 175.579C34.2204 176.596 35.1756 182.891 35.1756 184.175C35.1756 187.852 47.2142 190.833 62.0645 190.833Z" fill="url(#paint4_linear)"/>
<path d="M37.6943 177.474V184.481" stroke="white"/>
<path d="M40.1387 178.684V185.691" stroke="white"/>
<path d="M43.8057 179.895V186.902" stroke="white"/>
<path d="M48.6943 181.105V188.113" stroke="white"/>
<path d="M54.8057 182.316V189.323" stroke="white"/>
<path d="M68.25 182.316V189.323" stroke="white"/>
<path d="M74.3613 181.105V188.113" stroke="white"/>
<path d="M80.4722 179.895V186.902" stroke="white"/>
<path d="M84.1387 178.684V185.691" stroke="white"/>
<path d="M86.5835 176.263V183.27" stroke="white"/>
<path d="M60.9165 182.316V189.323" stroke="white"/>
<path fill-rule="evenodd" clip-rule="evenodd" d="M61.8889 182.316C76.7392 182.316 88.7778 179.335 88.7778 175.658C88.7778 171.981 76.7392 169 61.8889 169C47.0386 169 35 171.981 35 175.658C35 179.335 47.0386 182.316 61.8889 182.316Z" fill="url(#paint5_linear)"/>
<path fill-rule="evenodd" clip-rule="evenodd" d="M75.0645 183.833C89.9148 183.833 101.953 180.852 101.953 177.175C101.953 176.259 102.315 170.333 100.962 169.538C96.8871 167.145 86.2131 170.517 75.0645 170.517C65.4023 170.517 54.5059 166.684 49.7657 168.579C47.2204 169.596 48.1756 175.891 48.1756 177.175C48.1756 180.852 60.2142 183.833 75.0645 183.833Z" fill="url(#paint6_linear)"/>
<path d="M50.6943 170.474V177.481" stroke="white"/>
<path d="M53.1387 171.684V178.691" stroke="white"/>
<path d="M56.8057 172.895V179.902" stroke="white"/>
<path d="M61.6943 174.105V181.113" stroke="white"/>
<path d="M67.8057 175.316V182.323" stroke="white"/>
<path d="M81.25 175.316V182.323" stroke="white"/>
<path d="M87.3613 174.105V181.113" stroke="white"/>
<path d="M93.4722 172.895V179.902" stroke="white"/>
<path d="M97.1387 171.684V178.691" stroke="white"/>
<path d="M99.5835 169.263V176.27" stroke="white"/>
<path d="M73.9165 175.316V182.323" stroke="white"/>
<path fill-rule="evenodd" clip-rule="evenodd" d="M74.8889 175.316C89.7392 175.316 101.778 172.335 101.778 168.658C101.778 164.981 89.7392 162 74.8889 162C60.0386 162 48 164.981 48 168.658C48 172.335 60.0386 175.316 74.8889 175.316Z" fill="url(#paint7_linear)"/>
<path fill-rule="evenodd" clip-rule="evenodd" d="M67.0645 171.833C81.9148 171.833 93.9534 168.852 93.9534 165.175C93.9534 164.259 94.3154 158.333 92.9623 157.538C88.8871 155.145 78.2131 158.517 67.0645 158.517C57.4023 158.517 46.5059 154.684 41.7657 156.579C39.2204 157.596 40.1756 163.891 40.1756 165.175C40.1756 168.852 52.2142 171.833 67.0645 171.833Z" fill="url(#paint8_linear)"/>
<path d="M42.6943 158.474V165.481" stroke="white"/>
<path d="M45.1387 159.684V166.691" stroke="white"/>
<path d="M48.8057 160.895V167.902" stroke="white"/>
<path d="M53.6943 162.105V169.113" stroke="white"/>
<path d="M59.8057 163.316V170.323" stroke="white"/>
<path d="M73.25 163.316V170.323" stroke="white"/>
<path d="M79.3613 162.105V169.113" stroke="white"/>
<path d="M85.4722 160.895V167.902" stroke="white"/>
<path d="M89.1387 159.684V166.691" stroke="white"/>
<path d="M91.5835 157.263V164.27" stroke="white"/>
<path d="M65.9165 163.316V170.323" stroke="white"/>
<path fill-rule="evenodd" clip-rule="evenodd" d="M66.8889 163.316C81.7392 163.316 93.7778 160.335 93.7778 156.658C93.7778 152.981 81.7392 150 66.8889 150C52.0386 150 40 152.981 40 156.658C40 160.335 52.0386 163.316 66.8889 163.316Z" fill="url(#paint9_linear)"/>
<path fill-rule="evenodd" clip-rule="evenodd" d="M27.0645 215.833C41.9148 215.833 53.9534 212.852 53.9534 209.175C53.9534 208.259 54.3154 202.333 52.9623 201.538C48.8871 199.145 38.2131 202.517 27.0645 202.517C17.4023 202.517 6.50587 198.684 1.76567 200.579C-0.779587 201.596 0.175588 207.891 0.175588 209.175C0.175588 212.852 12.2142 215.833 27.0645 215.833Z" fill="url(#paint10_linear)"/>
<path d="M2.69434 202.474V209.481" stroke="white"/>
<path d="M5.13867 203.684V210.691" stroke="white"/>
<path d="M8.80566 204.895V211.902" stroke="white"/>
<path d="M13.6943 206.105V213.113" stroke="white"/>
<path d="M19.8057 207.316V214.323" stroke="white"/>
<path d="M33.25 207.316V214.323" stroke="white"/>
<path d="M39.3613 206.105V213.113" stroke="white"/>
<path d="M45.4722 204.895V211.902" stroke="white"/>
<path d="M49.1387 203.684V210.691" stroke="white"/>
<path d="M51.5835 201.263V208.27" stroke="white"/>
<path d="M25.9165 207.316V214.323" stroke="white"/>
<path fill-rule="evenodd" clip-rule="evenodd" d="M26.8889 207.316C41.7392 207.316 53.7778 204.335 53.7778 200.658C53.7778 196.981 41.7392 194 26.8889 194C12.0386 194 0 196.981 0 200.658C0 204.335 12.0386 207.316 26.8889 207.316Z" fill="url(#paint11_linear)"/>
<path fill-rule="evenodd" clip-rule="evenodd" d="M104.064 216.833C118.915 216.833 130.953 213.852 130.953 210.175C130.953 209.259 131.315 203.333 129.962 202.538C125.887 200.145 115.213 203.517 104.064 203.517C94.4023 203.517 83.5059 199.684 78.7657 201.579C76.2204 202.596 77.1756 208.891 77.1756 210.175C77.1756 213.852 89.2142 216.833 104.064 216.833Z" fill="url(#paint12_linear)"/>
<path d="M79.6943 203.474V210.481" stroke="white"/>
<path d="M82.1387 204.684V211.691" stroke="white"/>
<path d="M85.8057 205.895V212.902" stroke="white"/>
<path d="M90.6943 207.105V214.113" stroke="white"/>
<path d="M96.8057 208.316V215.323" stroke="white"/>
<path d="M110.25 208.316V215.323" stroke="white"/>
<path d="M116.361 207.105V214.113" stroke="white"/>
<path d="M122.472 205.895V212.902" stroke="white"/>
<path d="M126.139 204.684V211.691" stroke="white"/>
<path d="M128.583 202.263V209.27" stroke="white"/>
<path d="M102.917 208.316V215.323" stroke="white"/>
<path fill-rule="evenodd" clip-rule="evenodd" d="M103.889 208.316C118.739 208.316 130.778 205.335 130.778 201.658C130.778 197.981 118.739 195 103.889 195C89.0386 195 77 197.981 77 201.658C77 205.335 89.0386 208.316 103.889 208.316Z" fill="url(#paint13_linear)"/>
<path fill-rule="evenodd" clip-rule="evenodd" d="M97.0645 204.833C111.915 204.833 123.953 201.852 123.953 198.175C123.953 197.259 124.315 191.333 122.962 190.538C118.887 188.145 108.213 191.517 97.0645 191.517C87.4023 191.517 76.5059 187.684 71.7657 189.579C69.2204 190.596 70.1756 196.891 70.1756 198.175C70.1756 201.852 82.2142 204.833 97.0645 204.833Z" fill="url(#paint14_linear)"/>
<path d="M72.6943 191.474V198.481" stroke="white"/>
<path d="M75.1387 192.684V199.691" stroke="white"/>
<path d="M78.8057 193.895V200.902" stroke="white"/>
<path d="M83.6943 195.105V202.113" stroke="white"/>
<path d="M89.8057 196.316V203.323" stroke="white"/>
<path d="M103.25 196.316V203.323" stroke="white"/>
<path d="M109.361 195.105V202.113" stroke="white"/>
<path d="M115.472 193.895V200.902" stroke="white"/>
<path d="M119.139 192.684V199.691" stroke="white"/>
<path d="M121.583 190.263V197.27" stroke="white"/>
<path d="M95.9165 196.316V203.323" stroke="white"/>
<path fill-rule="evenodd" clip-rule="evenodd" d="M96.8889 196.316C111.739 196.316 123.778 193.335 123.778 189.658C123.778 185.981 111.739 183 96.8889 183C82.0386 183 70 185.981 70 189.658C70 193.335 82.0386 196.316 96.8889 196.316Z" fill="url(#paint15_linear)"/>
<path fill-rule="evenodd" clip-rule="evenodd" d="M110.064 191.833C124.915 191.833 136.953 188.852 136.953 185.175C136.953 184.259 137.315 178.333 135.962 177.538C131.887 175.145 121.213 178.517 110.064 178.517C100.402 178.517 89.5059 174.684 84.7657 176.579C82.2204 177.596 83.1756 183.891 83.1756 185.175C83.1756 188.852 95.2142 191.833 110.064 191.833Z" fill="url(#paint16_linear)"/>
<path d="M85.6943 178.474V185.481" stroke="white"/>
<path d="M88.1387 179.684V186.691" stroke="white"/>
<path d="M91.8057 180.895V187.902" stroke="white"/>
<path d="M96.6943 182.105V189.113" stroke="white"/>
<path d="M102.806 183.316V190.323" stroke="white"/>
<path d="M116.25 183.316V190.323" stroke="white"/>
<path d="M122.361 182.105V189.113" stroke="white"/>
<path d="M128.472 180.895V187.902" stroke="white"/>
<path d="M132.139 179.684V186.691" stroke="white"/>
<path d="M134.583 177.263V184.27" stroke="white"/>
<path d="M108.917 183.316V190.323" stroke="white"/>
<path fill-rule="evenodd" clip-rule="evenodd" d="M109.889 183.316C124.739 183.316 136.778 180.335 136.778 176.658C136.778 172.981 124.739 170 109.889 170C95.0386 170 83 172.981 83 176.658C83 180.335 95.0386 183.316 109.889 183.316Z" fill="url(#paint17_linear)"/>
<defs>
<linearGradient id="paint0_linear" x1="105.727" y1="-37.3217" x2="20.3136" y2="-13.7523" gradientUnits="userSpaceOnUse">
<stop stop-color="#520596"/>
<stop offset="1" stop-color="#FC486B"/>
</linearGradient>
<linearGradient id="paint1_linear" x1="48.7273" y1="0.678281" x2="-36.6864" y2="24.2477" gradientUnits="userSpaceOnUse">
<stop stop-color="#520596"/>
<stop offset="1" stop-color="#FC486B"/>
</linearGradient>
<linearGradient id="paint2_linear" x1="80.2122" y1="184.225" x2="62.2315" y2="217.633" gradientUnits="userSpaceOnUse">
<stop stop-color="#520596"/>
<stop offset="1" stop-color="#FC486B"/>
</linearGradient>
<linearGradient id="paint3_linear" x1="80.0609" y1="178.926" x2="66.336" y2="209.024" gradientUnits="userSpaceOnUse">
<stop stop-color="#520596"/>
<stop offset="1" stop-color="#FC486B"/>
</linearGradient>
<linearGradient id="paint4_linear" x1="72.2122" y1="170.225" x2="54.2315" y2="203.633" gradientUnits="userSpaceOnUse">
<stop stop-color="#520596"/>
<stop offset="1" stop-color="#FC486B"/>
</linearGradient>
<linearGradient id="paint5_linear" x1="72.0609" y1="164.926" x2="58.336" y2="195.024" gradientUnits="userSpaceOnUse">
<stop stop-color="#520596"/>
<stop offset="1" stop-color="#FC486B"/>
</linearGradient>
<linearGradient id="paint6_linear" x1="85.2122" y1="163.225" x2="67.2315" y2="196.633" gradientUnits="userSpaceOnUse">
<stop stop-color="#520596"/>
<stop offset="1" stop-color="#FC486B"/>
</linearGradient>
<linearGradient id="paint7_linear" x1="85.0609" y1="157.926" x2="71.336" y2="188.024" gradientUnits="userSpaceOnUse">
<stop stop-color="#520596"/>
<stop offset="1" stop-color="#FC486B"/>
</linearGradient>
<linearGradient id="paint8_linear" x1="77.2122" y1="151.225" x2="59.2315" y2="184.633" gradientUnits="userSpaceOnUse">
<stop stop-color="#520596"/>
<stop offset="1" stop-color="#FC486B"/>
</linearGradient>
<linearGradient id="paint9_linear" x1="77.0609" y1="145.926" x2="63.336" y2="176.024" gradientUnits="userSpaceOnUse">
<stop stop-color="#520596"/>
<stop offset="1" stop-color="#FC486B"/>
</linearGradient>
<linearGradient id="paint10_linear" x1="37.2122" y1="195.225" x2="19.2315" y2="228.633" gradientUnits="userSpaceOnUse">
<stop stop-color="#520596"/>
<stop offset="1" stop-color="#FC486B"/>
</linearGradient>
<linearGradient id="paint11_linear" x1="37.0609" y1="189.926" x2="23.336" y2="220.024" gradientUnits="userSpaceOnUse">
<stop stop-color="#520596"/>
<stop offset="1" stop-color="#FC486B"/>
</linearGradient>
<linearGradient id="paint12_linear" x1="114.212" y1="196.225" x2="96.2315" y2="229.633" gradientUnits="userSpaceOnUse">
<stop stop-color="#520596"/>
<stop offset="1" stop-color="#FC486B"/>
</linearGradient>
<linearGradient id="paint13_linear" x1="114.061" y1="190.926" x2="100.336" y2="221.024" gradientUnits="userSpaceOnUse">
<stop stop-color="#520596"/>
<stop offset="1" stop-color="#FC486B"/>
</linearGradient>
<linearGradient id="paint14_linear" x1="107.212" y1="184.225" x2="89.2315" y2="217.633" gradientUnits="userSpaceOnUse">
<stop stop-color="#520596"/>
<stop offset="1" stop-color="#FC486B"/>
</linearGradient>
<linearGradient id="paint15_linear" x1="107.061" y1="178.926" x2="93.336" y2="209.024" gradientUnits="userSpaceOnUse">
<stop stop-color="#520596"/>
<stop offset="1" stop-color="#FC486B"/>
</linearGradient>
<linearGradient id="paint16_linear" x1="120.212" y1="171.225" x2="102.232" y2="204.633" gradientUnits="userSpaceOnUse">
<stop stop-color="#520596"/>
<stop offset="1" stop-color="#FC486B"/>
</linearGradient>
<linearGradient id="paint17_linear" x1="120.061" y1="165.926" x2="106.336" y2="196.024" gradientUnits="userSpaceOnUse">
<stop stop-color="#520596"/>
<stop offset="1" stop-color="#FC486B"/>
</linearGradient>
</defs>
</svg>
