<svg width="105" height="67" viewBox="0 0 105 67" fill="none" xmlns="http://www.w3.org/2000/svg">
<path d="M0 15.0057C0 5.70433 6.87071 0.0134606 15.2929 0.0134606C20.4437 -0.225917 25.24 2.74433 27.504 7.5756L20.4222 11.3512C19.5254 9.21146 17.5306 7.79871 15.2929 7.7187C13.4568 7.68626 11.6897 8.44718 10.4104 9.82108C9.13105 11.195 8.45347 13.0595 8.53826 14.9726C8.45347 16.8858 9.13105 18.7503 10.4104 20.1242C11.6897 21.4981 13.4568 22.259 15.2929 22.2266C16.8265 22.2229 18.3287 21.7731 19.6306 20.9277V19.8269H14.4591V12.2648H28V24.1309C24.8098 27.932 20.1781 30.0776 15.3351 29.9979C6.87071 29.9979 0 24.2299 0 15.0057Z" fill="white"/>
<path d="M31 27.9469V0H39.4444V20.5729H50V28L31 27.9469Z" fill="white"/>
<path d="M55 27.8836V0H77V7.41021H63.8V10.1308H76.725V17.541H63.778V20.5898H76.978V28L55 27.8836Z" fill="white"/>
<path fill-rule="evenodd" clip-rule="evenodd" d="M79 28V0H96.0984C101.923 0 104.455 3.8694 104.455 7.14351C104.631 10.1518 102.599 12.8473 99.6463 13.5216C102.893 14.1535 105.174 17.071 104.99 20.3569C104.99 24.2582 102.339 27.9575 96.6862 27.9575L79 28ZM95.7992 8.653C95.7938 8.21688 95.6113 7.80147 95.2933 7.50118C94.9754 7.20088 94.5488 7.04122 94.1107 7.05847H87.5278V10.3326H94.1107C94.5603 10.3383 94.9931 10.1632 95.311 9.847C95.629 9.53076 95.805 9.10019 95.7992 8.653ZM95.739 17.8494C96.1168 18.1929 96.3325 18.6784 96.3335 19.1875C96.3369 19.6927 96.1224 20.1751 95.7443 20.5125C95.3663 20.8499 94.8611 21.01 94.3565 20.9522H87.5278V17.3804H94.3458C94.8557 17.3357 95.3611 17.5059 95.739 17.8494Z" fill="white"/>
<path fill-rule="evenodd" clip-rule="evenodd" d="M0 67V35H105V67H0ZM5.30303 61.6667H99.697V40.3333H5.30303V61.6667Z" fill="white"/>
<path d="M8.00021 50.0008C7.98802 48.6172 8.51318 47.2912 9.44858 46.3437C10.384 45.3962 11.6444 44.9136 12.9246 45.0127C14.582 44.9326 16.1251 45.9217 16.8514 47.5297L14.5696 48.7881C14.2674 48.1009 13.63 47.6577 12.9246 47.6441C11.6879 47.6441 10.6853 48.7248 10.6853 50.058C10.6853 51.3912 11.6879 52.472 12.9246 52.472C13.4198 52.4597 13.9017 52.2972 14.3149 52.0029V51.6597H12.6593V49.0856H17V53.0326C15.9717 54.3015 14.4768 55.0173 12.914 54.9889C11.6363 55.0812 10.3807 54.5959 9.44841 53.6495C8.51615 52.7032 7.99144 51.3812 8.00021 50.0008Z" fill="white"/>
<path fill-rule="evenodd" clip-rule="evenodd" d="M21.6964 51.8585L22.9427 55L26 54.9764L24.3702 51.4333C25.4019 50.8756 26.0377 49.6932 25.9893 48.4217C26.0188 47.4839 25.6874 46.5764 25.0778 45.9253C24.4682 45.2743 23.6378 44.941 22.7936 45.0086H18V55H20.7164V51.8585H21.6964ZM22.3782 47.6659C22.8362 47.6659 23.2623 47.9021 23.2623 48.4454C23.2623 49.0004 22.8362 49.2366 22.3782 49.2366H20.7164V47.6659H22.3782Z" fill="white"/>
<path fill-rule="evenodd" clip-rule="evenodd" d="M33.6136 53.818L33.9321 55L37 54.9645L33.6985 45H30.2909L27 55H30.0679L30.3864 53.818H33.6136ZM31.1189 51.2057L32 47.9905L32.8811 51.2057H31.1189Z" fill="white"/>
<path fill-rule="evenodd" clip-rule="evenodd" d="M37 45V55L41.0489 54.9645C43.852 54.9645 46 53.1678 46 49.9764C46 46.7849 43.8842 45 41.0382 45H37ZM42.6478 48.2757C43.0628 48.7325 43.2719 49.3686 43.2184 50.0118C43.237 50.6511 43.0122 51.2699 42.5982 51.7188C42.1842 52.1677 41.6187 52.4059 41.0382 52.3759H39.7387V47.6478H41.0704C41.6548 47.5889 42.2328 47.819 42.6478 48.2757Z" fill="white"/>
<path fill-rule="evenodd" clip-rule="evenodd" d="M47.4673 46.3637C46.5258 47.3086 45.9947 48.6248 46 50C45.9947 51.3752 46.5258 52.6914 47.4673 53.6363C48.4087 54.5813 49.6766 55.0707 50.9701 54.9885C52.7255 55.1148 54.4008 54.1925 55.3146 52.597C56.2285 51.0015 56.2285 48.9985 55.3146 47.403C54.4008 45.8075 52.7255 44.8852 50.9701 45.0115C49.6766 44.9293 48.4087 45.4187 47.4673 46.3637ZM50.9169 47.839C52.0912 47.7939 53.0833 48.7549 53.1479 50C53.1805 50.6284 52.9678 51.2433 52.5599 51.7001C52.1519 52.1568 51.5847 52.4151 50.9917 52.4142C49.8167 52.4123 48.8594 51.4123 48.8391 50.1655C48.8187 48.9187 49.7427 47.8842 50.9169 47.839Z" fill="white"/>
<path fill-rule="evenodd" clip-rule="evenodd" d="M58 54.9914V45.0167H63.2631C63.9021 44.9342 64.5423 45.1606 65.0298 45.6415C65.5174 46.1225 65.8084 46.8145 65.8329 47.5516C65.8919 48.6236 65.2654 49.5868 64.3527 49.8272C65.3491 50.059 66.0482 51.0913 65.9974 52.256C66.0171 53.0133 65.7548 53.7444 65.2761 54.2664C64.7974 54.7885 64.1476 55.0521 63.4892 54.9914H58ZM63.1397 48.1176C63.1371 47.9622 63.08 47.8146 62.9813 47.7082C62.8827 47.6017 62.7508 47.5452 62.6155 47.5516H60.5596V48.7307H62.6155C62.7616 48.7406 62.9046 48.68 63.0101 48.5635C63.1155 48.4471 63.1737 48.2854 63.1706 48.1176H63.1397ZM63.1239 51.3828C63.2394 51.504 63.3049 51.6756 63.3042 51.8552H63.335C63.3412 52.0425 63.2724 52.2227 63.1482 52.3445C63.024 52.4663 62.858 52.5162 62.6977 52.4801H60.6418V51.2185H62.6977C62.8536 51.2018 63.0084 51.2615 63.1239 51.3828Z" fill="white"/>
<path fill-rule="evenodd" clip-rule="evenodd" d="M67.8939 45.4649C66.0363 46.3269 64.8927 48.2338 65.008 50.277C65.0027 51.5767 65.5358 52.8206 66.4808 53.7137C67.4259 54.6067 68.6986 55.0693 69.997 54.9916C72.0452 54.9928 73.887 53.7457 74.6449 51.8445C75.4028 49.9433 74.9236 47.7725 73.4355 46.3663C71.9475 44.9601 69.7515 44.6029 67.8939 45.4649ZM69.9437 48.2347C71.1224 48.1921 72.1183 49.1003 72.1831 50.277H72.194C72.2268 50.8728 72.0119 51.4556 71.6 51.8877C71.1881 52.3197 70.6158 52.5625 70.0187 52.5586C68.8392 52.5568 67.8783 51.6118 67.8578 50.4334C67.8374 49.2551 68.7649 48.2773 69.9437 48.2347Z" fill="white"/>
<path d="M77 55V45H80V54.9645L77 55Z" fill="white"/>
<path d="M80 55V45H86V47.6241H82.3944V48.617H85.9155V51.2411H82.3944V52.3286H86V54.9645L80 55Z" fill="white"/>
<path d="M91.3015 55L88 45H91.0679L93 51.7021L94.9321 45H98L94.7091 55H91.3015Z" fill="white"/>
</svg>
