<svg aria-hidden="true" style="position: absolute; width: 0; height: 0; overflow: hidden;" version="1.1"  xmlns="http://www.w3.org/2000/svg">
    <symbol id="logo" viewBox="0 0 50 32">
        <title>logo</title>
        <path fill="#fff" style="fill: var(--color1, #fff)" d="M0 7.167c0-4.442 3.282-7.16 7.304-7.16 2.46-0.114 4.751 1.304 5.832 3.612l-3.382 1.803c-0.428-1.022-1.381-1.697-2.45-1.735-0.877-0.015-1.721 0.348-2.332 1.004s-0.935 1.547-0.894 2.46c-0.040 0.914 0.283 1.804 0.894 2.46s1.455 1.020 2.332 1.004c0.732-0.002 1.45-0.217 2.072-0.62v-0.526h-2.47v-3.612h6.467v5.667c-1.524 1.815-3.736 2.84-6.049 2.802-4.043 0-7.324-2.755-7.324-7.16z"></path>
        <path fill="#fff" style="fill: var(--color1, #fff)" d="M14.806 13.348v-13.348h4.033v9.826h5.041v3.547l-9.075-0.025z"></path>
        <path fill="#fff" style="fill: var(--color1, #fff)" d="M26.269 13.318v-13.318h10.507v3.539h-6.304v1.299h6.173v3.539h-6.184v1.456h6.304v3.539l-10.497-0.056z"></path>
        <path fill="#fff" style="fill: var(--color1, #fff)" d="M37.731 13.373l8.447-0.020c2.7 0 3.966-1.767 3.966-3.63 0.088-1.569-1.002-2.963-2.552-3.265 1.41-0.322 2.381-1.609 2.297-3.046 0-1.564-1.209-3.412-3.991-3.412h-8.166v13.373zM45.755 4.133c0.003 0.214-0.081 0.419-0.233 0.57s-0.359 0.235-0.573 0.232h-3.144v-1.564h3.144c0.209-0.008 0.413 0.068 0.565 0.211s0.239 0.342 0.242 0.55zM45.726 8.525c0.18 0.164 0.283 0.396 0.284 0.639 0.002 0.241-0.101 0.472-0.281 0.633s-0.422 0.238-0.663 0.21h-3.261v-1.706h3.256c0.244-0.021 0.485 0.060 0.665 0.224z"></path>
        <path fill="#fff" style="fill: var(--color1, #fff)" d="M0 32v-15.284h50.149v15.284h-50.149zM2.533 29.453h45.084v-10.189h-45.084v10.189z"></path>
        <path fill="#fff" style="fill: var(--color1, #fff)" d="M3.821 23.881c-0.006-0.661 0.245-1.294 0.692-1.747s1.049-0.683 1.66-0.636c0.792-0.038 1.529 0.434 1.875 1.202l-1.090 0.601c-0.144-0.328-0.449-0.54-0.786-0.546-0.591 0-1.070 0.516-1.070 1.153s0.479 1.153 1.070 1.153c0.237-0.006 0.467-0.084 0.664-0.224v-0.164h-0.791v-1.229h2.073v1.885c-0.491 0.606-1.205 0.948-1.952 0.934-0.61 0.044-1.21-0.188-1.655-0.64s-0.696-1.083-0.692-1.743z"></path>
        <path fill="#fff" style="fill: var(--color1, #fff)" d="M10.362 24.768l0.595 1.5 1.46-0.011-0.778-1.692c0.493-0.266 0.796-0.831 0.773-1.438 0.014-0.448-0.144-0.881-0.435-1.192s-0.688-0.47-1.091-0.438h-2.289v4.772h1.297v-1.5h0.468zM10.688 22.766c0.219 0 0.422 0.113 0.422 0.372 0 0.265-0.204 0.378-0.422 0.378h-0.794v-0.75h0.794z"></path>
        <path fill="#fff" style="fill: var(--color1, #fff)" d="M16.054 25.704l0.152 0.565 1.465-0.017-1.577-4.759h-1.627l-1.572 4.776h1.465l0.152-0.565h1.541zM14.863 24.456l0.421-1.536 0.421 1.536h-0.842z"></path>
        <path fill="#fff" style="fill: var(--color1, #fff)" d="M17.672 21.493v4.776l1.934-0.017c1.339 0 2.365-0.858 2.365-2.382s-1.011-2.377-2.37-2.377h-1.929zM20.369 23.057c0.198 0.218 0.298 0.522 0.273 0.829 0.009 0.305-0.098 0.601-0.296 0.815s-0.468 0.328-0.745 0.314h-0.621v-2.258h0.636c0.279-0.028 0.555 0.082 0.753 0.3z"></path>
        <path fill="#fff" style="fill: var(--color1, #fff)" d="M22.671 22.144c-0.45 0.451-0.703 1.080-0.701 1.737-0.003 0.657 0.251 1.285 0.701 1.737s1.055 0.685 1.673 0.646c0.838 0.060 1.639-0.38 2.075-1.142s0.436-1.719 0-2.481c-0.436-0.762-1.237-1.203-2.075-1.142-0.618-0.039-1.223 0.194-1.673 0.646zM24.319 22.848c0.561-0.022 1.035 0.437 1.066 1.032 0.016 0.3-0.086 0.594-0.281 0.812s-0.466 0.341-0.749 0.341c-0.561-0.001-1.018-0.479-1.028-1.074s0.432-1.090 0.992-1.111z"></path>
        <path fill="#fff" style="fill: var(--color1, #fff)" d="M27.701 26.265h2.622c0.314 0.029 0.625-0.097 0.853-0.346s0.354-0.599 0.345-0.96c0.024-0.556-0.31-1.049-0.786-1.16 0.436-0.115 0.735-0.575 0.707-1.087-0.012-0.352-0.151-0.683-0.384-0.912s-0.539-0.338-0.844-0.298h-2.514v4.764zM30.156 22.982h0.015c0.001 0.080-0.026 0.157-0.077 0.213s-0.119 0.085-0.188 0.080h-0.982v-0.563h0.982c0.065-0.003 0.128 0.024 0.175 0.075s0.074 0.121 0.076 0.196zM30.149 24.541c0.055 0.058 0.086 0.14 0.086 0.226h0.015c0.003 0.089-0.030 0.176-0.089 0.234s-0.139 0.082-0.215 0.065h-0.982v-0.603h0.982c0.074-0.008 0.148 0.021 0.204 0.078z"></path>
        <path fill="#fff" style="fill: var(--color1, #fff)" d="M32.427 21.715c-0.887 0.412-1.433 1.322-1.378 2.298-0.003 0.621 0.252 1.215 0.703 1.641s1.059 0.647 1.679 0.61c0.978 0.001 1.858-0.595 2.22-1.503s0.133-1.945-0.578-2.616c-0.711-0.672-1.76-0.842-2.647-0.431zM33.406 23.037c0.563-0.020 1.039 0.413 1.070 0.975h0.005c0.016 0.285-0.087 0.563-0.284 0.769s-0.47 0.322-0.755 0.32c-0.563-0.001-1.022-0.452-1.032-1.015s0.433-1.030 0.996-1.050z"></path>
        <path fill="#fff" style="fill: var(--color1, #fff)" d="M36.776 26.269v-4.776h1.433v4.759l-1.433 0.017z"></path>
        <path fill="#fff" style="fill: var(--color1, #fff)" d="M38.209 26.269v-4.776h2.866v1.253h-1.722v0.474h1.682v1.253h-1.682v0.519h1.722v1.259l-2.866 0.017z"></path>
        <path fill="#fff" style="fill: var(--color1, #fff)" d="M43.607 26.269l-1.577-4.776h1.465l0.923 3.201 0.923-3.201h1.465l-1.572 4.776h-1.627z"></path>
    </symbol>
</svg>