<svg width="41" height="25" viewBox="0 0 41 25" fill="none" xmlns="http://www.w3.org/2000/svg">
<path d="M36.2566 11.0259C38.5531 10.8591 40.1109 9.93994 40.7103 8.69274C39.8819 9.14078 37.3104 9.62925 35.8902 9.16405C35.8206 8.87027 35.7429 8.59121 35.6665 8.33928C34.5844 4.84082 30.8793 2.02234 26.9971 2.36283C27.3112 2.25117 27.6297 2.14722 27.9474 2.05389C28.3747 1.91914 30.8819 1.55998 30.487 0.780829C30.1543 0.0955007 27.0911 1.29876 26.5143 1.45603C27.2757 1.20393 28.5349 0.770283 28.6698 0C27.5033 0.140866 26.3582 0.626404 25.4735 1.33241C25.7929 1.02967 26.0352 0.660721 26.0866 0.263652C22.9755 2.01355 21.1581 5.54147 19.6874 8.96367C18.5325 7.97828 17.5089 7.20231 16.5907 6.77143C14.0147 5.55519 10.9347 4.28623 6.09971 2.70599C5.95131 4.1144 6.89085 5.98708 9.59813 7.23244C9.01158 7.16331 7.93895 7.31756 7.08108 7.49844C7.43044 9.11191 8.57142 10.4412 11.6603 11.084C10.2487 11.166 9.51913 11.4489 8.85795 12.0584C9.50088 13.1806 11.0698 14.5013 13.892 14.2302C10.7542 15.4209 12.6126 17.6259 15.1658 17.2971C10.8102 21.258 3.94324 20.9669 0 17.654C10.2955 30.0056 32.6757 24.9587 36.0108 13.0618C38.5097 13.0805 39.9786 12.2997 40.8894 11.4388C39.4498 11.6539 37.3631 11.4316 36.2566 11.0259Z" fill="white" fill-opacity="0.3"/>
</svg>
